<?xml version="1.0" standalone="no"?>
<!DOCTYPE svg PUBLIC "-//W3C//DTD SVG 20010904//EN"
 "http://www.w3.org/TR/2001/REC-SVG-20010904/DTD/svg10.dtd">
<svg version="1.0" xmlns="http://www.w3.org/2000/svg"
 width="688.000000pt" height="688.000000pt" viewBox="0 0 688.000000 688.000000"
 preserveAspectRatio="xMidYMid meet">
<metadata>
Created by potrace 1.11, written by Peter Selinger 2001-2013
</metadata>
<g transform="translate(0.000000,688.000000) scale(0.100000,-0.100000)"
fill="#000000" stroke="none">
<path d="M3200 6874 c-496 -45 -898 -156 -1310 -364 -759 -384 -1338 -1020
-1654 -1818 -101 -253 -172 -536 -213 -838 -24 -181 -24 -647 0 -828 129 -964
607 -1783 1371 -2351 476 -354 1018 -571 1631 -652 166 -22 627 -24 790 -5
424 52 796 162 1158 342 949 473 1640 1376 1841 2407 50 257 60 368 60 673 0
305 -10 416 -60 673 -90 464 -305 956 -582 1337 -572 785 -1408 1280 -2373
1405 -118 16 -556 28 -659 19z m2893 -2016 c4 -128 7 -270 7 -315 l0 -83 -755
0 -755 0 0 -1244 c0 -1116 2 -1245 16 -1257 67 -56 53 -173 -27 -214 -32 -17
-95 -17 -132 -1 -13 6 -16 5 -11 -7 4 -13 -7 -16 -64 -19 l-69 -3 -783 1249
-783 1249 32 65 32 65 23 -34 c12 -19 274 -436 581 -927 l559 -894 14 41 c7
22 27 52 43 65 l29 25 0 915 0 916 60 0 60 0 0 -919 c0 -874 1 -921 18 -933
56 -40 69 -120 29 -179 -31 -47 -62 -61 -125 -56 -51 4 -52 3 -39 -17 8 -12
38 -59 67 -106 29 -47 54 -87 56 -89 1 -1 8 16 14 39 6 23 22 53 36 67 l24 24
0 1089 0 1090 -724 0 -723 0 -197 310 c-108 171 -196 313 -196 315 0 3 827 5
1838 5 l1839 0 6 -232z m-3633 -62 l141 -229 -36 -37 -37 -38 61 -91 c34 -49
61 -92 61 -95 0 -5 -1251 -2591 -1254 -2591 0 0 -156 2 -346 5 l-346 5 801
1652 c440 909 803 1652 807 1650 4 -1 71 -105 148 -231z m995 -1886 l736
-1185 -67 -3 c-46 -2 -71 1 -80 10 -7 7 -328 522 -714 1143 l-702 1130 34 63
c29 56 34 61 45 45 7 -10 343 -551 748 -1203z m-162 -92 l686 -1098 -74 0 -73
0 -648 1037 c-356 570 -647 1042 -647 1047 0 12 64 119 68 114 1 -2 311 -497
688 -1100z"/>
<path d="M4380 3373 l0 -1088 30 -28 c78 -74 47 -198 -58 -226 -28 -8 -48 -8
-67 -1 -15 6 -30 9 -32 7 -2 -3 26 -51 62 -107 61 -96 65 -101 65 -69 0 40 29
91 65 115 l25 16 -2 1232 -3 1231 -42 3 -43 3 0 -1088z"/>
</g>
</svg>
